<svg width="128" height="128" viewBox="0 0 128 128" fill="none" xmlns="http://www.w3.org/2000/svg">
<path d="M108 22H20C15.5817 22 12 25.5817 12 30V108C12 112.418 15.5817 116 20 116H108C112.418 116 116 112.418 116 108V30C116 25.5817 112.418 22 108 22Z" fill="url(#paint0_linear_3_112)"/>
<path d="M108 12H20C15.5817 12 12 15.5817 12 20V100C12 104.418 15.5817 108 20 108H108C112.418 108 116 104.418 116 100V20C116 15.5817 112.418 12 108 12Z" fill="#DEDDDA"/>
<path d="M108 104H20C17.7909 104 16 102.209 16 100V20C16 17.7909 17.7909 16 20 16H108C110.209 16 112 17.7909 112 20V100C112 102.209 110.209 104 108 104Z" fill="#241F31"/>
<path d="M53.9553 63.973C53.9107 63.8531 53.4098 62.0662 52.8422 60.002L51.81 56.249L47.8906 55.1614C45.735 54.5632 43.9842 54.052 44.0001 54.0254C44.016 53.9989 45.7799 53.4896 47.9199 52.8936L51.8109 51.81L52.8875 47.905C53.4797 45.7573 53.9892 44 54.0199 44C54.0505 44 54.5601 45.7573 55.1522 47.905L56.2289 51.81L60.1145 52.8921C62.2515 53.4872 64 53.9993 64 54.0301C64 54.0609 62.2514 54.5731 60.1142 55.1682L56.2285 56.2503L55.1324 60.2207C54.2292 63.4926 54.0221 64.1527 53.9553 63.973Z" fill="white"/>
<path d="M38.933 53.9596C38.8661 53.7797 38.1147 51.0992 37.2632 48.003L35.715 42.3736L29.836 40.7421C26.6025 39.8448 23.9764 39.078 24.0002 39.0382C24.024 38.9983 26.6698 38.2343 29.8799 37.3404L35.7163 35.7151L37.3313 29.8575C38.2195 26.6359 38.9839 24 39.0298 24C39.0758 24 39.8401 26.6359 40.7284 29.8575L42.3434 35.7151L48.1717 37.3381C51.3773 38.2308 54 38.999 54 39.0452C54 39.0914 51.3771 39.8596 48.1714 40.7523L42.3427 42.3755L40.6986 48.3311C39.3437 53.2388 39.0331 54.2291 38.933 53.9596Z" fill="white"/>
<path d="M108 104H20C17.7909 104 16 102.209 16 100V20C16 17.7908 17.7909 16 20 16H108C110.209 16 112 17.7908 112 20V100C112 102.209 110.209 104 108 104Z" fill="url(#paint1_radial_3_112)"/>
<defs>
<linearGradient id="paint0_linear_3_112" x1="12" y1="64" x2="116" y2="64" gradientUnits="userSpaceOnUse">
<stop stop-color="#77767B"/>
<stop offset="0.05" stop-color="#C0BFBC"/>
<stop offset="0.1" stop-color="#9A9996"/>
<stop offset="0.899999" stop-color="#9A9996"/>
<stop offset="0.95" stop-color="#C0BFBC"/>
<stop offset="1" stop-color="#77767B"/>
</linearGradient>
<radialGradient id="paint1_radial_3_112" cx="0" cy="0" r="1" gradientUnits="userSpaceOnUse" gradientTransform="translate(64 143) rotate(-90) scale(182 198.546)">
<stop stop-color="white" stop-opacity="0.22"/>
<stop offset="1" stop-opacity="0"/>
</radialGradient>
</defs>
</svg>
