<svg width="128" height="128" viewBox="0 0 128 128" fill="none" xmlns="http://www.w3.org/2000/svg">
<path d="M20 22H108C112.418 22 116 25.582 116 30V108C116 112.418 112.418 116 108 116H20C15.582 116 12 112.418 12 108V30C12 25.582 15.582 22 20 22Z" fill="url(#paint0_linear_12_2)"/>
<path d="M20 12H108C112.418 12 116 15.582 116 20V100C116 104.418 112.418 108 108 108H20C15.582 108 12 104.418 12 100V20C12 15.582 15.582 12 20 12Z" fill="#7D7D7D"/>
<path d="M20 14H108C111.312 14 114 16.6875 114 20V100C114 103.312 111.312 106 108 106H20C16.6875 106 14 103.312 14 100V20C14 16.6875 16.6875 14 20 14Z" fill="#1F0F4A"/>
<path d="M20 14H108C111.312 14 114 16.6875 114 20V100C114 103.312 111.312 106 108 106H20C16.6875 106 14 103.312 14 100V20C14 16.6875 16.6875 14 20 14Z" fill="url(#paint1_radial_12_2)"/>
<g opacity="0.9">
<path d="M53.9553 63.973C53.9107 63.8531 53.4098 62.0662 52.8422 60.002L51.81 56.249L47.8906 55.1614C45.735 54.5632 43.9842 54.052 44.0001 54.0254C44.016 53.9989 45.7799 53.4896 47.9199 52.8936L51.8109 51.81L52.8875 47.905C53.4797 45.7573 53.9892 44 54.0199 44C54.0505 44 54.5601 45.7573 55.1522 47.905L56.2289 51.81L60.1145 52.8921C62.2515 53.4872 64 53.9993 64 54.0301C64 54.0609 62.2514 54.5731 60.1142 55.1682L56.2285 56.2503L55.1324 60.2207C54.2292 63.4926 54.0221 64.1527 53.9553 63.973Z" fill="white"/>
<path d="M38.933 53.9596C38.8661 53.7797 38.1147 51.0992 37.2632 48.003L35.715 42.3736L29.836 40.7421C26.6025 39.8448 23.9764 39.078 24.0002 39.0382C24.024 38.9983 26.6698 38.2343 29.8799 37.3404L35.7163 35.7151L37.3313 29.8575C38.2195 26.6359 38.9839 24 39.0298 24C39.0758 24 39.8401 26.6359 40.7284 29.8575L42.3434 35.7151L48.1717 37.3381C51.3773 38.2308 54 38.999 54 39.0452C54 39.0914 51.3771 39.8596 48.1714 40.7523L42.3427 42.3755L40.6986 48.3311C39.3437 53.2388 39.0331 54.2291 38.933 53.9596Z" fill="white"/>
</g>
<defs>
<linearGradient id="paint0_linear_12_2" x1="12" y1="64" x2="116" y2="64" gradientUnits="userSpaceOnUse">
<stop stop-color="#3D3846"/>
<stop offset="0.05" stop-color="#77767B"/>
<stop offset="0.1" stop-color="#5E5C64"/>
<stop offset="0.899999" stop-color="#504E56"/>
<stop offset="0.95" stop-color="#77767B"/>
<stop offset="1" stop-color="#3D3846"/>
</linearGradient>
<radialGradient id="paint1_radial_12_2" cx="0" cy="0" r="1" gradientUnits="userSpaceOnUse" gradientTransform="translate(64 -26.7727) rotate(90) scale(190.273 206.818)">
<stop stop-color="white" stop-opacity="0.22"/>
<stop offset="1" stop-opacity="0"/>
</radialGradient>
</defs>
</svg>
